<svg xmlns="http://www.w3.org/2000/svg" xmlns:xlink="http://www.w3.org/1999/xlink" width="139px" height="185px" viewBox="0 0 139 185" version="1.1"><script xmlns="" id="krispX" type="text/javascript" async="true" src="chrome-extension://edmmlbmgelmbipapbhcncjblhejknomb/static/js/patch.js" model8="chrome-extension://edmmlbmgelmbipapbhcncjblhejknomb/models/small_8k.thw" model16="chrome-extension://edmmlbmgelmbipapbhcncjblhejknomb/models/small_16k.thw" workletURL="chrome-extension://edmmlbmgelmbipapbhcncjblhejknomb/wasm/krisp-processor.js"/>
    <title>51ABDD7B-12DF-4214-BB67-71949CB0594D</title>
    <g id="Web_source-Copy" stroke="none" stroke-width="1" fill="none" fill-rule="evenodd">
        <g id="00---01-barcamp_landing" transform="translate(-1137.000000, -2868.000000)" fill="#ffffff">
            <g id="lifetime-achievment-section" transform="translate(0.000000, 2777.000000)">
                <g id="des_element_fire" transform="translate(1137.000000, 91.000000)">
                    <polygon id="Fill-1" points="69.5 0 46.5334682 77.8303793 6.27095554 65.081151 31.0842163 113.999914 0 121.758603 55.1383318 138 37.8856182 104.519041 58.0164532 110.893796 69.5 71.9783252 80.9832659 110.893796 101.114101 104.519041 83.8613872 138 139 121.758603 107.915784 113.999914 132.728764 65.081151 92.4662508 77.8303793"/>
                    <path d="M10.9998596,133 L11.0001404,133 L10.9998596,133 Z" id="Fill-2"/>
                    <polygon id="Fill-3" points="119.000201 180 120 175 119 180"/>
                    <polygon id="Fill-4" points="82 172.507992 123.064799 185 127 171.18063 106.680898 165"/>
                    <polygon id="Fill-5" points="57 150.492116 15.9354799 138 12 151.818883 32.3193808 158"/>
                    <polygon id="Fill-6" points="11 171.619723 14.9801739 185 14.9804557 185 127 152.380277 123.019544 139"/>
                </g>
            </g>
        </g>
    </g>
</svg>